<svg xmlns="http://www.w3.org/2000/svg" xmlns:xlink="http://www.w3.org/1999/xlink" width="50" height="30" viewBox="0 0 50 30"><defs><path id="evfba" d="M537 71a3 3 0 0 1 3-3h37a3 3 0 0 1 0 6h-37a3 3 0 0 1-3-3z"/><path id="evfbb" d="M541 95a3 3 0 0 1 3-3h19a3 3 0 0 1 0 6h-19a3 3 0 0 1-3-3z"/><path id="evfbc" d="M544 83a3 3 0 0 1 3-3h37a3 3 0 0 1 0 6h-37a3 3 0 0 1-3-3z"/></defs><g><g transform="translate(-537 -68)"><use fill="#465398" xlink:href="#evfba"/></g><g transform="translate(-537 -68)"><use fill="#465398" xlink:href="#evfbb"/></g><g transform="translate(-537 -68)"><use fill="#465398" xlink:href="#evfbc"/></g></g></svg>